<svg id="Group_1337" data-name="Group 1337" xmlns="http://www.w3.org/2000/svg" width="19.771" height="19.771" viewBox="0 0 19.771 19.771">
  <circle id="Ellipse_16" data-name="Ellipse 16" cx="9.885" cy="9.885" r="9.885" transform="translate(0 0)" fill="#f3f3f3"/>
  <path id="Path_678" data-name="Path 678" d="M416.929,82.712a1.566,1.566,0,1,0,1.566,1.566A1.57,1.57,0,0,0,416.929,82.712Zm4.7,1.566c0-.649.005-1.291-.031-1.938a2.6,2.6,0,0,0-2.725-2.725c-.649-.036-1.291-.031-1.939-.031s-1.291-.005-1.938.031a2.6,2.6,0,0,0-2.725,2.725c-.037.649-.031,1.291-.031,1.938s-.005,1.291.031,1.938a2.6,2.6,0,0,0,2.725,2.725c.649.037,1.291.031,1.938.031s1.291.006,1.939-.031a2.6,2.6,0,0,0,2.725-2.725C421.633,85.569,421.626,84.927,421.626,84.278Zm-4.7,2.41a2.41,2.41,0,1,1,2.41-2.41A2.407,2.407,0,0,1,416.929,86.688Zm2.509-4.355a.563.563,0,1,1,.563-.563.562.562,0,0,1-.563.563Z" transform="translate(-407.294 -74.64)" fill="#a065a0"/>
</svg>
