<svg id="Group_1335" data-name="Group 1335" xmlns="http://www.w3.org/2000/svg" width="19.771" height="19.771" viewBox="0 0 19.771 19.771">
  <circle id="Ellipse_16" data-name="Ellipse 16" cx="9.885" cy="9.885" r="9.885" transform="translate(0 0)" fill="#f3f3f3"/>
  <g id="Group_1336" data-name="Group 1336" transform="translate(4.119 5.766)">
    <path id="path7429" d="M-1239.1,145.966a1.355,1.355,0,0,0-.953-.953,31.629,31.629,0,0,0-4.23-.232,32.885,32.885,0,0,0-4.23.223,1.382,1.382,0,0,0-.953.962,14.269,14.269,0,0,0-.223,2.6,14.216,14.216,0,0,0,.223,2.6,1.354,1.354,0,0,0,.953.953,31.7,31.7,0,0,0,4.23.232,32.885,32.885,0,0,0,4.23-.223,1.355,1.355,0,0,0,.953-.953,14.277,14.277,0,0,0,.223-2.6A13.555,13.555,0,0,0-1239.1,145.966Z" transform="translate(1249.689 -144.782)" fill="red"/>
    <path id="polygon7431" d="M-1131.941,203.655V206.9l2.814-1.621Z" transform="translate(1136.269 -201.491)" fill="#fff"/>
  </g>
</svg>
