<svg xmlns="http://www.w3.org/2000/svg" width="32" height="32" viewBox="0 0 32 32">
  <g id="Group_1337" data-name="Group 1337" transform="translate(-2132)">
    <circle id="Ellipse_16" data-name="Ellipse 16" cx="16" cy="16" r="16" transform="translate(2132)"/>
    <path id="Path_678" data-name="Path 678" d="M419.6,84.489a2.456,2.456,0,1,0,2.456,2.456A2.463,2.463,0,0,0,419.6,84.489Zm7.365,2.456c0-1.018.009-2.025-.049-3.04a4.073,4.073,0,0,0-4.274-4.274c-1.018-.057-2.025-.048-3.04-.048s-2.024-.009-3.04.048a4.073,4.073,0,0,0-4.274,4.274c-.057,1.018-.049,2.024-.049,3.04s-.009,2.025.049,3.04a4.073,4.073,0,0,0,4.274,4.274c1.018.057,2.025.048,3.04.048s2.025.009,3.04-.048a4.074,4.074,0,0,0,4.274-4.274C426.973,88.971,426.961,87.964,426.961,86.946ZM419.6,90.725a3.779,3.779,0,1,1,3.779-3.779A3.774,3.774,0,0,1,419.6,90.725Zm3.935-6.83a.883.883,0,1,1,.883-.883.882.882,0,0,1-.883.883Z" transform="translate(1729.016 -70.702)" fill="#a065a0"/>
  </g>
</svg>
