<svg xmlns="http://www.w3.org/2000/svg" width="32" height="32" viewBox="0 0 32 32">
  <g id="Group_1335" data-name="Group 1335" transform="translate(-2132)">
    <circle id="Ellipse_16" data-name="Ellipse 16" cx="16" cy="16" r="16" transform="translate(2132)"/>
    <g id="Group_1336" data-name="Group 1336" transform="translate(2140.999 11)">
      <path id="path7429" d="M-1235.019,146.423a1.877,1.877,0,0,0-1.32-1.32,43.825,43.825,0,0,0-5.861-.321,45.565,45.565,0,0,0-5.861.308,1.915,1.915,0,0,0-1.32,1.333,19.773,19.773,0,0,0-.308,3.6,19.7,19.7,0,0,0,.308,3.6,1.877,1.877,0,0,0,1.32,1.32,43.925,43.925,0,0,0,5.861.321,45.566,45.566,0,0,0,5.861-.308,1.877,1.877,0,0,0,1.32-1.32,19.78,19.78,0,0,0,.308-3.6A18.772,18.772,0,0,0-1235.019,146.423Z" transform="translate(1249.689 -144.782)" fill="red"/>
      <path id="polygon7431" d="M-1131.941,203.655v4.491l3.9-2.246Z" transform="translate(1137.937 -200.657)" fill="#fff"/>
    </g>
  </g>
</svg>
