<svg xmlns="http://www.w3.org/2000/svg" width="50" height="50" viewBox="0 0 50 50">
  <g id="Group_26484" data-name="Group 26484" transform="translate(8.861 8.362)">
    <circle id="Ellipse_169" data-name="Ellipse 169" cx="25" cy="25" r="25" transform="translate(-8.861 -8.362)" fill="#dbe8d3"/>
    <g id="Group_25001" data-name="Group 25001" transform="translate(10.139 7.638)">
      <path id="path2517" d="M-213.838-624.665c-2.241-3.361-6.162-7.917-6.162-11.838a6.169,6.169,0,0,1,6.162-6.162,6.169,6.169,0,0,1,6.162,6.162C-207.676-632.582-211.6-628.026-213.838-624.665Z" transform="translate(219.999 642.665)" fill="none" stroke="#b08f29" stroke-linecap="round" stroke-linejoin="round" stroke-width="1.5"/>
      <path id="path2521" d="M-97.2-194.4a2.8,2.8,0,0,1-2.8-2.8,2.8,2.8,0,0,1,2.8-2.8,2.8,2.8,0,0,1,2.8,2.8A2.8,2.8,0,0,1-97.2-194.4Z" transform="translate(103.361 203.36)" fill="none" stroke="#b08f29" stroke-linecap="round" stroke-linejoin="round" stroke-width="1.5"/>
    </g>
  </g>
</svg>
