<svg xmlns="http://www.w3.org/2000/svg" width="34.328" height="23.5" viewBox="0 0 34.328 23.5">
  <g id="Group_9874" data-name="Group 9874" transform="translate(-102.126 -721.5)">
    <path id="path295" d="M-134.636-145.239l-6.91-2.247,16.012-5.207,16.012,5.207-6.91,2.247-9.1,2.96Z" transform="translate(244.422 874.943)" fill="none" stroke="#fff" stroke-linecap="round" stroke-linejoin="round" stroke-width="1.5"/>
    <path id="path303" d="M0,0V9.438c0,1.438,4.08,2.6,9.113,2.6s9.113-1.166,9.113-2.6V0" transform="translate(109.775 729.735)" fill="none" stroke="#fff" stroke-linecap="round" stroke-linejoin="round" stroke-width="1.5"/>
    <path id="path307" d="M-25.365,0a1.3,1.3,0,0,1,1.3,1.3,1.3,1.3,0,0,1-1.3,1.3,1.3,1.3,0,0,1-1.3-1.3A1.3,1.3,0,0,1-25.365,0Z" transform="translate(158.962 737.631)" fill="none" stroke="#fff" stroke-linecap="round" stroke-linejoin="round" stroke-width="1.5"/>
    <path id="path311" d="M0,0V9.632" transform="translate(133.598 727.999)" fill="none" stroke="#fff" stroke-linecap="round" stroke-linejoin="round" stroke-width="1.5"/>
    <path id="path315" d="M-49.121-129.318l-2.106-4.015-2.106,4.015Z" transform="translate(184.825 873.568)" fill="none" stroke="#fff" stroke-linecap="round" stroke-linejoin="round" stroke-width="1.5"/>
  </g>
</svg>
