<svg xmlns="http://www.w3.org/2000/svg" width="21.462" height="21.502" viewBox="0 0 21.462 21.502">
  <path id="Icon_feather-phone-call" data-name="Icon feather-phone-call" d="M23.128,17.335v3.011a2.007,2.007,0,0,1-2.188,2.007,19.861,19.861,0,0,1-8.661-3.081,19.57,19.57,0,0,1-6.022-6.022,19.861,19.861,0,0,1-3.081-8.7,2.007,2.007,0,0,1,2-2.188H8.184a2.007,2.007,0,0,1,2.007,1.726,12.886,12.886,0,0,0,.7,2.82,2.007,2.007,0,0,1-.452,2.118L9.167,10.3a16.058,16.058,0,0,0,6.022,6.022l1.275-1.275a2.007,2.007,0,0,1,2.118-.452,12.886,12.886,0,0,0,2.82.7A2.007,2.007,0,0,1,23.128,17.335Z" transform="translate(-2.417 -1.612)" fill="none" stroke="#fff" stroke-linecap="round" stroke-linejoin="round" stroke-width="1.5"/>
</svg>
