<svg xmlns="http://www.w3.org/2000/svg" width="50" height="50" viewBox="0 0 50 50">
  <g id="Group_9685" data-name="Group 9685" transform="translate(-804 0.5)">
    <circle id="Ellipse_169" data-name="Ellipse 169" cx="25" cy="25" r="25" transform="translate(804 -0.5)" fill="#b08f29" opacity="0.2"/>
    <path id="Icon_feather-phone-call" data-name="Icon feather-phone-call" d="M12.833,4.488a3.735,3.735,0,0,1,2.951,2.951M12.833,1.5a6.723,6.723,0,0,1,5.939,5.931m-.747,5.961v2.241A1.494,1.494,0,0,1,16.4,17.127a14.783,14.783,0,0,1-6.447-2.293,14.566,14.566,0,0,1-4.482-4.482A14.783,14.783,0,0,1,3.174,3.875,1.494,1.494,0,0,1,4.66,2.247H6.9A1.494,1.494,0,0,1,8.4,3.532a9.591,9.591,0,0,0,.523,2.1,1.494,1.494,0,0,1-.336,1.576l-.949.949a11.952,11.952,0,0,0,4.482,4.482l.949-.949a1.494,1.494,0,0,1,1.576-.336,9.591,9.591,0,0,0,2.1.523A1.494,1.494,0,0,1,18.024,13.392Z" transform="translate(818.332 15.5)" fill="none" stroke="#b08f29" stroke-linecap="round" stroke-linejoin="round" stroke-width="1.5"/>
  </g>
</svg>
