<svg xmlns="http://www.w3.org/2000/svg" width="25.888" height="25.886" viewBox="0 0 25.888 25.886">
  <path id="Path_718" data-name="Path 718" d="M-49.794-28.685h-5.548V-37.93a.924.924,0,0,0-.924-.924H-67.36a.924.924,0,0,0-.924.924v9.245h-5.548a.925.925,0,0,0-.924.924.925.925,0,0,0,.924.924h5.548v1.85a.924.924,0,0,0,.924.924h11.094a.924.924,0,0,0,.924-.924v-1.85h4.623v9.245h-4.623v-.924a.923.923,0,0,0-.924-.924H-67.36a.923.923,0,0,0-.924.924v.924h-4.623v-6.471a.924.924,0,0,0-.926-.924.924.924,0,0,0-.924.924v7.4a.924.924,0,0,0,.924.924h5.548v1.85a.924.924,0,0,0,.924.924h11.094a.924.924,0,0,0,.924-.924v-1.85h5.548a.923.923,0,0,0,.924-.924V-27.76A.924.924,0,0,0-49.794-28.685Zm-7.4,2.773h-9.245V-37.005h9.245Zm0,11.095h-9.245v-2.774h9.245Z" transform="translate(74.757 38.854)" fill="#fff"/>
</svg>
