<svg xmlns="http://www.w3.org/2000/svg" width="18.879" height="13.018" viewBox="0 0 18.879 13.018">
  <path id="Path_720" data-name="Path 720" d="M-6.029-29.229c0,.046-.008.092-.014.135a.452.452,0,0,1-.022.1.416.416,0,0,1-.034.1.374.374,0,0,1-.042.1c-.017.038-.036.057-.055.1a.217.217,0,0,1-.059.078.617.617,0,0,1-.042.059l-3.877,4.433a1.11,1.11,0,0,1-.833.388,1.142,1.142,0,0,1-.729-.272,1.124,1.124,0,0,1-.106-1.575l2.271-2.586H-20.345a2.153,2.153,0,0,0-2.121,1.633,2.569,2.569,0,0,0,.948,3.091A1.117,1.117,0,0,1-20.7-22.24a1.119,1.119,0,0,1-1.09.982c-1.808,0-2.949-1.381-3.047-3.674a4.683,4.683,0,0,1,.951-3.706,4.681,4.681,0,0,1,3.4-1.757H-9.8l-1.985-1.983a1.109,1.109,0,0,1,0-1.57,1.112,1.112,0,0,1,1.571-.005l3.874,3.869a2.036,2.036,0,0,1,.137.176,1.468,1.468,0,0,1,.1.174.08.08,0,0,0,.017.059,1.288,1.288,0,0,1,.047.155v.059c0,.059.013.1.014.155v.019A.3.3,0,0,1-6.029-29.229Z" transform="translate(24.904 34.276)" fill="#fff"/>
</svg>
